<svg width="2764" height="1918" viewBox="0 0 2764 1918" fill="none" xmlns="http://www.w3.org/2000/svg">
<g id="hgero-bg">
<g id="Vector-luz-2" filter="url(#filter0_f)">
<path d="M497.567 911.927C497.567 911.927 535.821 785.94 658.675 773.866C748.036 765.083 812.903 788.626 905.601 814.264C1180.81 890.377 1139.42 1044.93 1334.57 1178.76C1505.27 1295.82 2066.19 1460.25 1820.3 1458.03C1707.34 1457.01 1641.61 1423.78 1528.83 1397.4C1258.37 1334.13 1085.44 1306.99 858.089 1197.04C728.05 1134.15 576.116 1027.05 565.502 1014.96C557.011 1005.29 497.567 911.927 497.567 911.927Z" fill="#00C2FF" fill-opacity="0.2"/>
</g>
<g id="Vector-luz-1" filter="url(#filter1_f)">
<path d="M2256.09 1072.07C2256.09 1072.07 2212.57 1193.89 2077.99 1199.08C1980.11 1202.85 1909.44 1176.17 1808.36 1145.91C1508.25 1056.07 1555.57 906.325 1343.81 764.092C1158.58 639.676 547.021 447.433 816.034 462.999C939.606 470.149 1011.09 506.407 1134.14 538.494C1429.23 615.441 1618.08 651.544 1865.38 772.052C2006.83 840.98 2171.66 954.574 2183.11 967.046C2192.28 977.023 2256.09 1072.07 2256.09 1072.07Z" fill="#00C2FF" fill-opacity="0.2"/>
</g>
<path id="Ellipse-3" opacity="0.2" d="M800.684 1280.05C801.798 1281.58 802.859 1283.17 803.863 1284.81L803.01 1285.33C803.5 1286.13 803.976 1286.94 804.438 1287.77C804.9 1288.59 805.344 1289.43 805.769 1290.26L806.66 1289.81C807.533 1291.52 808.329 1293.26 809.052 1295.01L808.128 1295.39C808.85 1297.14 809.497 1298.91 810.07 1300.69L811.022 1300.38C811.61 1302.21 812.121 1304.05 812.557 1305.9L811.583 1306.13C812.016 1307.97 812.373 1309.81 812.655 1311.67L813.644 1311.52C813.932 1313.41 814.143 1315.31 814.278 1317.21L813.28 1317.28C813.414 1319.16 813.473 1321.04 813.457 1322.92L814.457 1322.93C814.441 1324.84 814.349 1326.75 814.182 1328.64L813.186 1328.56C813.021 1330.43 812.782 1332.3 812.471 1334.16L813.457 1334.32C813.142 1336.2 812.752 1338.07 812.29 1339.93L811.32 1339.68C810.864 1341.51 810.337 1343.32 809.74 1345.1L810.689 1345.42C810.084 1347.23 809.409 1349.02 808.664 1350.78L807.743 1350.39C807.01 1352.12 806.209 1353.82 805.341 1355.5L806.229 1355.96C805.352 1357.65 804.408 1359.31 803.398 1360.93L802.548 1360.4C801.557 1362 800.501 1363.56 799.382 1365.08L800.188 1365.67C799.06 1367.2 797.869 1368.7 796.616 1370.15L795.86 1369.49C794.635 1370.91 793.35 1372.28 792.006 1373.61L792.709 1374.33C791.36 1375.66 789.951 1376.95 788.485 1378.19L787.84 1377.43C786.412 1378.63 784.929 1379.79 783.391 1380.9L783.976 1381.71C782.44 1382.82 780.85 1383.88 779.208 1384.88L778.687 1384.03C777.885 1384.52 777.071 1384.99 776.245 1385.45C775.418 1385.92 774.586 1386.36 773.75 1386.79L774.205 1387.68C772.491 1388.55 770.758 1389.35 769.01 1390.08L768.625 1389.16C766.876 1389.89 765.111 1390.55 763.335 1391.13L763.647 1392.08C761.823 1392.68 759.987 1393.2 758.142 1393.65L757.905 1392.68C756.069 1393.13 754.224 1393.51 752.375 1393.81L752.536 1394.79C750.644 1395.1 748.748 1395.34 746.852 1395.49L746.769 1394.5C744.888 1394.65 743.006 1394.74 741.129 1394.75L741.134 1395.75C739.222 1395.76 737.313 1395.69 735.414 1395.55L735.486 1394.56C733.606 1394.42 731.734 1394.21 729.875 1393.93L729.725 1394.92C727.836 1394.63 725.961 1394.27 724.104 1393.84L724.33 1392.86C722.496 1392.44 720.679 1391.94 718.885 1391.37L718.583 1392.33C716.764 1391.75 714.967 1391.1 713.198 1390.39L713.573 1389.46C711.829 1388.75 710.113 1387.98 708.428 1387.14L707.98 1388.03C706.276 1387.18 704.603 1386.26 702.966 1385.27L703.482 1384.41C701.874 1383.44 700.301 1382.41 698.768 1381.31L698.185 1382.12C696.639 1381.01 695.132 1379.84 693.67 1378.6L694.316 1377.84C692.885 1376.63 691.498 1375.36 690.158 1374.03L689.453 1374.74C688.105 1373.4 686.805 1372 685.557 1370.54L686.316 1369.89C685.1 1368.47 683.933 1366.99 682.82 1365.46L682.011 1366.05C680.898 1364.52 679.837 1362.93 678.833 1361.29L679.686 1360.77C679.196 1359.97 678.72 1359.15 678.258 1358.33C677.796 1357.5 677.352 1356.67 676.927 1355.83L676.035 1356.28C675.163 1354.57 674.366 1352.84 673.644 1351.08L674.568 1350.7C673.846 1348.95 673.198 1347.18 672.626 1345.41L671.674 1345.71C671.085 1343.88 670.574 1342.04 670.139 1340.2L671.112 1339.97C670.68 1338.13 670.323 1336.28 670.041 1334.43L669.052 1334.58C668.764 1332.68 668.553 1330.79 668.418 1328.89L669.415 1328.82C669.281 1326.94 669.223 1325.05 669.239 1323.18L668.239 1323.17C668.255 1321.26 668.347 1319.35 668.514 1317.45L669.51 1317.54C669.675 1315.66 669.913 1313.79 670.224 1311.94L669.238 1311.77C669.554 1309.89 669.944 1308.02 670.406 1306.17L671.376 1306.41C671.831 1304.58 672.358 1302.78 672.956 1300.99L672.007 1300.67C672.612 1298.86 673.287 1297.08 674.032 1295.32L674.953 1295.71C675.685 1293.98 676.487 1292.27 677.355 1290.6L676.467 1290.14C677.344 1288.45 678.288 1286.79 679.298 1285.16L680.147 1285.69C681.138 1284.1 682.194 1282.54 683.313 1281.02L682.508 1280.42C683.635 1278.89 684.826 1277.4 686.079 1275.95L686.836 1276.6C688.061 1275.18 689.346 1273.81 690.69 1272.48L689.986 1271.77C691.336 1270.43 692.744 1269.14 694.21 1267.9L694.856 1268.67C696.284 1267.46 697.767 1266.3 699.304 1265.19L698.719 1264.38C700.256 1263.27 701.846 1262.22 703.488 1261.21L704.009 1262.07C704.81 1261.58 705.624 1261.1 706.451 1260.64C707.278 1260.18 708.109 1259.73 708.945 1259.31L708.491 1258.42C710.205 1257.54 711.937 1256.74 713.685 1256.01L714.07 1256.93C715.82 1256.2 717.584 1255.55 719.361 1254.96L719.049 1254.01C720.873 1253.41 722.709 1252.89 724.553 1252.44L724.79 1253.41C726.627 1252.96 728.472 1252.59 730.321 1252.29L730.16 1251.3C732.052 1250.99 733.947 1250.76 735.843 1250.6L735.926 1251.6C737.808 1251.44 739.689 1251.36 741.566 1251.35L741.561 1250.35C743.474 1250.34 745.382 1250.4 747.282 1250.54L747.209 1251.54C749.09 1251.67 750.962 1251.88 752.821 1252.17L752.971 1251.18C754.86 1251.46 756.735 1251.82 758.592 1252.26L758.365 1253.23C760.2 1253.66 762.017 1254.15 763.811 1254.72L764.113 1253.77C765.932 1254.34 767.729 1254.99 769.498 1255.71L769.123 1256.64C770.866 1257.34 772.583 1258.12 774.268 1258.96L774.715 1258.06C776.42 1258.92 778.093 1259.84 779.73 1260.82L779.213 1261.68C780.822 1262.65 782.395 1263.68 783.927 1264.78L784.51 1263.97C786.057 1265.08 787.563 1266.25 789.026 1267.49L788.38 1268.25C789.81 1269.46 791.198 1270.74 792.538 1272.07L793.243 1271.36C794.59 1272.7 795.89 1274.1 797.139 1275.55L796.379 1276.2C797.595 1277.62 798.762 1279.1 799.875 1280.63L800.684 1280.05Z" stroke="#00C2FF" stroke-width="2" stroke-dasharray="6 6"/>
<path id="Ellipse-2" opacity="0.2" d="M1439.19 863.544C1440.25 865.232 1441.28 866.944 1442.29 868.679L1441.43 869.182C1441.93 870.044 1442.43 870.913 1442.91 871.787C1443.4 872.661 1443.88 873.537 1444.36 874.416L1445.24 873.943C1446.19 875.712 1447.1 877.489 1447.99 879.275L1447.09 879.719C1447.98 881.512 1448.83 883.314 1449.65 885.123L1450.56 884.71C1451.39 886.542 1452.19 888.381 1452.95 890.227L1452.02 890.608C1452.78 892.454 1453.51 894.307 1454.2 896.166L1455.14 895.817C1455.84 897.699 1456.51 899.586 1457.14 901.479L1456.19 901.795C1456.82 903.692 1457.42 905.593 1457.98 907.499L1458.94 907.215C1459.51 909.142 1460.04 911.072 1460.54 913.006L1459.57 913.256C1460.07 915.188 1460.53 917.124 1460.96 919.062L1461.94 918.846C1462.37 920.807 1462.77 922.769 1463.13 924.734L1462.15 924.915C1462.51 926.879 1462.84 928.844 1463.13 930.81L1464.12 930.664C1464.41 932.65 1464.67 934.636 1464.89 936.622L1463.9 936.733C1464.12 938.715 1464.3 940.697 1464.46 942.677L1465.45 942.601C1465.61 944.602 1465.72 946.601 1465.8 948.598L1464.8 948.638C1464.88 950.632 1464.93 952.624 1464.94 954.612L1465.94 954.607C1465.95 956.614 1465.92 958.616 1465.86 960.615L1464.86 960.584C1464.8 962.576 1464.7 964.565 1464.57 966.547L1465.56 966.614C1465.43 968.615 1465.26 970.61 1465.05 972.598L1464.06 972.495C1463.85 974.479 1463.61 976.456 1463.33 978.425L1464.32 978.564C1464.04 980.551 1463.73 982.529 1463.38 984.498L1462.39 984.323C1462.04 986.285 1461.66 988.238 1461.24 990.181L1462.22 990.392C1461.79 992.351 1461.33 994.301 1460.84 996.238L1459.87 995.991C1459.38 997.922 1458.85 999.841 1458.28 1001.75L1459.24 1002.03C1458.67 1003.95 1458.07 1005.86 1457.43 1007.76L1456.48 1007.44C1455.85 1009.33 1455.18 1011.2 1454.47 1013.06L1455.41 1013.42C1454.7 1015.29 1453.95 1017.15 1453.17 1018.99L1452.25 1018.6C1451.47 1020.44 1450.66 1022.25 1449.82 1024.05L1450.72 1024.48C1449.87 1026.29 1448.98 1028.09 1448.06 1029.87L1447.17 1029.41C1446.26 1031.17 1445.31 1032.92 1444.33 1034.65L1445.2 1035.15C1444.21 1036.89 1443.18 1038.61 1442.13 1040.31L1441.28 1039.78C1440.23 1041.47 1439.14 1043.14 1438.03 1044.79L1438.86 1045.35C1437.73 1047.01 1436.58 1048.64 1435.39 1050.26L1434.58 1049.66C1433.4 1051.26 1432.19 1052.84 1430.95 1054.39L1431.73 1055.02C1430.47 1056.58 1429.19 1058.12 1427.88 1059.63L1427.12 1058.97C1425.82 1060.47 1424.48 1061.95 1423.11 1063.4L1423.84 1064.08C1422.47 1065.54 1421.07 1066.97 1419.63 1068.37L1418.93 1067.66C1417.51 1069.04 1416.06 1070.4 1414.58 1071.74L1415.25 1072.48C1413.77 1073.82 1412.25 1075.12 1410.71 1076.41L1410.07 1075.64C1408.54 1076.9 1406.98 1078.14 1405.4 1079.35L1406 1080.15C1404.42 1081.36 1402.8 1082.54 1401.15 1083.69L1400.58 1082.87C1398.95 1084.01 1397.3 1085.12 1395.62 1086.2L1396.16 1087.04C1394.48 1088.11 1392.78 1089.16 1391.04 1090.18L1390.54 1089.31C1389.68 1089.82 1388.81 1090.31 1387.94 1090.8C1387.07 1091.29 1386.19 1091.77 1385.31 1092.24L1385.78 1093.12C1384.01 1094.06 1382.22 1094.97 1380.43 1095.83L1379.99 1094.93C1378.2 1095.8 1376.39 1096.63 1374.57 1097.42L1374.97 1098.33C1373.12 1099.13 1371.27 1099.89 1369.4 1100.61L1369.04 1099.68C1367.18 1100.4 1365.31 1101.08 1363.43 1101.71L1363.75 1102.66C1361.85 1103.31 1359.95 1103.91 1358.03 1104.48L1357.75 1103.52C1355.84 1104.08 1353.92 1104.6 1351.99 1105.09L1352.24 1106.06C1350.29 1106.54 1348.34 1106.99 1346.38 1107.4L1346.17 1106.42C1344.22 1106.83 1342.27 1107.19 1340.31 1107.52L1340.47 1108.5C1338.49 1108.83 1336.51 1109.12 1334.53 1109.37L1334.4 1108.38C1332.43 1108.62 1330.45 1108.83 1328.47 1109L1328.55 1110C1326.56 1110.16 1324.56 1110.29 1322.56 1110.38L1322.51 1109.38C1320.52 1109.47 1318.54 1109.52 1316.55 1109.53L1316.55 1110.53C1314.55 1110.54 1312.55 1110.51 1310.54 1110.44L1310.58 1109.44C1308.59 1109.37 1306.6 1109.27 1304.62 1109.12L1304.55 1110.12C1302.55 1109.97 1300.55 1109.79 1298.56 1109.56L1298.67 1108.57C1296.7 1108.35 1294.72 1108.09 1292.76 1107.79L1292.61 1108.78C1290.63 1108.48 1288.65 1108.14 1286.69 1107.76L1286.87 1106.78C1284.92 1106.41 1282.97 1106 1281.03 1105.55L1280.81 1106.53C1278.86 1106.08 1276.91 1105.59 1274.98 1105.07L1275.24 1104.1C1273.32 1103.59 1271.41 1103.03 1269.5 1102.44L1269.21 1103.39C1267.3 1102.8 1265.39 1102.17 1263.5 1101.51L1263.83 1100.56C1261.96 1099.91 1260.09 1099.21 1258.24 1098.48L1257.87 1099.41C1256.01 1098.68 1254.16 1097.91 1252.32 1097.11L1252.72 1096.19C1250.9 1095.4 1249.09 1094.57 1247.29 1093.71L1246.86 1094.61C1245.06 1093.74 1243.27 1092.84 1241.49 1091.91L1241.96 1091.03C1240.2 1090.1 1238.45 1089.14 1236.72 1088.15L1236.23 1089.02C1234.49 1088.03 1232.77 1087 1231.07 1085.94L1231.59 1085.09C1229.91 1084.04 1228.23 1082.96 1226.58 1081.85L1226.02 1082.68C1224.36 1081.57 1222.72 1080.42 1221.09 1079.24L1221.68 1078.43C1220.07 1077.27 1218.48 1076.07 1216.91 1074.84L1216.29 1075.63C1214.72 1074.4 1213.16 1073.14 1211.62 1071.85L1212.26 1071.09C1210.74 1069.81 1209.24 1068.5 1207.75 1067.17L1207.09 1067.91C1205.6 1066.57 1204.14 1065.21 1202.69 1063.81L1203.39 1063.09C1201.96 1061.71 1200.56 1060.3 1199.17 1058.87L1198.45 1059.56C1197.06 1058.13 1195.7 1056.66 1194.35 1055.17L1195.1 1054.5C1193.77 1053.02 1192.46 1051.52 1191.18 1049.98L1190.41 1050.63C1189.13 1049.1 1187.87 1047.54 1186.63 1045.96L1187.42 1045.34C1186.2 1043.78 1185 1042.19 1183.83 1040.58L1183.02 1041.16C1181.85 1039.55 1180.69 1037.91 1179.57 1036.24L1180.4 1035.68C1179.28 1034.04 1178.2 1032.37 1177.13 1030.67L1176.29 1031.2C1175.23 1029.52 1174.19 1027.81 1173.18 1026.07L1174.05 1025.57C1173.55 1024.7 1173.05 1023.84 1172.56 1022.96C1172.07 1022.09 1171.59 1021.21 1171.12 1020.33L1170.24 1020.81C1169.29 1019.04 1168.37 1017.26 1167.49 1015.47L1168.39 1015.03C1167.5 1013.24 1166.65 1011.44 1165.83 1009.63L1164.92 1010.04C1164.09 1008.21 1163.29 1006.37 1162.53 1004.52L1163.45 1004.14C1162.69 1002.29 1161.97 1000.44 1161.28 998.583L1160.34 998.932C1159.64 997.051 1158.97 995.163 1158.34 993.271L1159.29 992.954C1158.66 991.058 1158.06 989.156 1157.5 987.251L1156.54 987.534C1155.97 985.607 1155.43 983.677 1154.93 981.743L1155.9 981.493C1155.4 979.561 1154.94 977.625 1154.51 975.688L1153.54 975.903C1153.1 973.943 1152.71 971.98 1152.35 970.016L1153.33 969.834C1152.97 967.87 1152.64 965.905 1152.35 963.939L1151.36 964.085C1151.07 962.099 1150.81 960.113 1150.59 958.127L1151.58 958.016C1151.36 956.034 1151.17 954.052 1151.02 952.072L1150.02 952.148C1149.87 950.148 1149.75 948.148 1149.67 946.152L1150.67 946.111C1150.59 944.117 1150.55 942.125 1150.54 940.138L1149.54 940.142C1149.53 938.136 1149.56 936.133 1149.62 934.134L1150.62 934.166C1150.68 932.173 1150.78 930.185 1150.91 928.202L1149.91 928.135C1150.05 926.134 1150.22 924.139 1150.42 922.151L1151.42 922.254C1151.62 920.27 1151.87 918.293 1152.14 916.324L1151.15 916.185C1151.43 914.199 1151.75 912.22 1152.1 910.251L1153.08 910.426C1153.43 908.464 1153.82 906.511 1154.24 904.569L1153.26 904.357C1153.68 902.398 1154.14 900.449 1154.64 898.511L1155.61 898.758C1156.1 896.828 1156.63 894.908 1157.19 893.001L1156.23 892.718C1156.8 890.795 1157.41 888.885 1158.04 886.988L1158.99 887.307C1159.63 885.42 1160.3 883.546 1161 881.686L1160.07 881.332C1160.78 879.458 1161.53 877.599 1162.31 875.757L1163.23 876.147C1164 874.314 1164.82 872.496 1165.66 870.696L1164.76 870.271C1165.61 868.457 1166.49 866.661 1167.41 864.883L1168.3 865.342C1169.22 863.575 1170.17 861.826 1171.15 860.096L1170.28 859.602C1171.27 857.861 1172.29 856.139 1173.35 854.438L1174.2 854.966C1175.25 853.276 1176.33 851.607 1177.45 849.959L1176.62 849.398C1177.74 847.741 1178.9 846.106 1180.09 844.492L1180.89 845.086C1182.07 843.486 1183.29 841.909 1184.53 840.356L1183.75 839.73C1185 838.169 1186.28 836.632 1187.6 835.119L1188.35 835.775C1189.66 834.276 1190.99 832.802 1192.36 831.352L1191.63 830.666C1193.01 829.211 1194.41 827.782 1195.85 826.379L1196.55 827.094C1197.96 825.707 1199.42 824.346 1200.9 823.013L1200.23 822.27C1201.71 820.933 1203.23 819.624 1204.77 818.343L1205.41 819.113C1206.94 817.847 1208.49 816.609 1210.08 815.399L1209.47 814.604C1211.06 813.392 1212.68 812.21 1214.33 811.056L1214.9 811.876C1216.52 810.739 1218.18 809.631 1219.86 808.553L1219.32 807.711C1220.99 806.635 1222.7 805.589 1224.43 804.574L1224.94 805.436C1225.8 804.933 1226.66 804.437 1227.54 803.949C1228.41 803.46 1229.29 802.982 1230.17 802.513L1229.7 801.631C1231.47 800.686 1233.25 799.781 1235.05 798.915L1235.48 799.815C1237.28 798.948 1239.09 798.12 1240.91 797.332L1240.51 796.414C1242.36 795.615 1244.21 794.856 1246.07 794.137L1246.43 795.07C1248.3 794.352 1250.17 793.674 1252.04 793.036L1251.72 792.089C1253.62 791.444 1255.53 790.839 1257.45 790.274L1257.73 791.233C1259.64 790.67 1261.56 790.147 1263.48 789.664L1263.24 788.694C1265.19 788.205 1267.14 787.757 1269.1 787.349L1269.3 788.328C1271.25 787.922 1273.21 787.557 1275.17 787.231L1275 786.244C1276.98 785.916 1278.96 785.627 1280.95 785.379L1281.07 786.372C1283.05 786.124 1285.03 785.917 1287.01 785.75L1286.92 784.754C1288.92 784.585 1290.92 784.456 1292.92 784.367L1292.96 785.366C1294.95 785.278 1296.94 785.229 1298.93 785.219L1298.92 784.219C1300.93 784.209 1302.93 784.239 1304.93 784.307L1304.9 785.307C1306.89 785.375 1308.87 785.482 1310.86 785.628L1310.93 784.631C1312.93 784.778 1314.92 784.963 1316.91 785.187L1316.8 786.181C1318.78 786.403 1320.75 786.664 1322.72 786.962L1322.87 785.973C1324.85 786.273 1326.82 786.611 1328.79 786.986L1328.6 787.968C1330.56 788.341 1332.5 788.751 1334.45 789.197L1334.67 788.223C1336.62 788.672 1338.56 789.158 1340.5 789.68L1340.24 790.646C1342.16 791.164 1344.07 791.719 1345.97 792.309L1346.27 791.354C1348.18 791.947 1350.08 792.576 1351.97 793.241L1351.64 794.184C1353.52 794.844 1355.38 795.538 1357.24 796.268L1357.6 795.337C1359.46 796.069 1361.31 796.836 1363.15 797.638L1362.75 798.555C1364.58 799.35 1366.39 800.179 1368.19 801.043L1368.62 800.141C1370.42 801.007 1372.21 801.906 1373.98 802.839L1373.52 803.724C1375.28 804.648 1377.02 805.606 1378.75 806.597L1379.25 805.729C1380.98 806.722 1382.71 807.748 1384.41 808.807L1383.88 809.656C1385.57 810.705 1387.24 811.786 1388.9 812.899L1389.46 812.069C1391.12 813.183 1392.76 814.329 1394.38 815.507L1393.8 816.317C1395.41 817.482 1397 818.678 1398.57 819.905L1399.18 819.117C1400.76 820.346 1402.32 821.606 1403.85 822.896L1403.21 823.662C1404.73 824.94 1406.24 826.247 1407.72 827.583L1408.39 826.84C1409.87 828.177 1411.34 829.543 1412.78 830.939L1412.09 831.658C1413.51 833.037 1414.92 834.445 1416.31 835.881L1417.03 835.187C1418.41 836.624 1419.78 838.09 1421.12 839.583L1420.38 840.252C1421.71 841.729 1423.01 843.234 1424.3 844.766L1425.06 844.124C1426.35 845.652 1427.61 847.208 1428.84 848.79L1428.05 849.406C1429.27 850.969 1430.47 852.558 1431.65 854.173L1432.46 853.585C1433.63 855.2 1434.78 856.84 1435.91 858.506L1435.08 859.066C1436.19 860.711 1437.28 862.381 1438.34 864.076L1439.19 863.544Z" stroke="#00C2FF" stroke-width="2" stroke-dasharray="6 6"/>
<path id="bg-hero-line1" opacity="0.2" d="M2339 421C2049 595 1845.9 848.612 1457 944.5C1182.68 1012.14 971 962.333 734 970.5C497 978.667 418 1362.5 418 1362.5" stroke="url(#paint0_linear)"/>
<path id="bg-hero-line2" opacity="0.2" d="M2339 458C2049 632 1845.9 885.612 1457 981.5C1182.68 1049.14 971 999.333 734 1007.5C497 1015.67 418 1399.5 418 1399.5" stroke="url(#paint1_linear)"/>
<path id="Ellipse-1" opacity="0.2" d="M938.851 628.07C939.906 629.731 940.934 631.418 941.935 633.131L941.071 633.635C941.567 634.485 942.057 635.341 942.539 636.204C943.022 637.067 943.495 637.932 943.959 638.8L944.841 638.328C945.776 640.078 946.675 641.837 947.538 643.606L946.639 644.044C947.504 645.818 948.332 647.601 949.124 649.393L950.038 648.989C950.841 650.805 951.606 652.63 952.334 654.463L951.405 654.832C952.132 656.664 952.822 658.504 953.476 660.35L954.418 660.017C955.079 661.885 955.703 663.761 956.289 665.643L955.334 665.94C955.92 667.822 956.469 669.71 956.98 671.603L957.945 671.342C958.462 673.257 958.941 675.177 959.383 677.101L958.408 677.324C958.848 679.243 959.251 681.167 959.616 683.094L960.598 682.907C960.967 684.853 961.298 686.803 961.591 688.755L960.602 688.903C960.895 690.85 961.149 692.798 961.367 694.748L962.361 694.638C962.58 696.607 962.762 698.577 962.906 700.547L961.908 700.62C962.052 702.583 962.158 704.545 962.227 706.507L963.226 706.472C963.295 708.45 963.327 710.428 963.322 712.403L962.322 712.401C962.316 714.367 962.274 716.332 962.194 718.294L963.193 718.334C963.113 720.312 962.996 722.287 962.841 724.258L961.844 724.18C961.691 726.141 961.5 728.097 961.274 730.048L962.267 730.164C962.039 732.129 961.773 734.089 961.472 736.043L960.484 735.891C960.184 737.833 959.848 739.77 959.476 741.7L960.458 741.889C960.083 743.831 959.672 745.766 959.226 747.693L958.252 747.467C957.808 749.382 957.328 751.288 956.814 753.185L957.779 753.447C957.261 755.355 956.707 757.255 956.119 759.143L955.164 758.846C954.579 760.722 953.96 762.587 953.305 764.441L954.248 764.774C953.59 766.639 952.897 768.492 952.17 770.332L951.24 769.965C950.518 771.791 949.762 773.606 948.972 775.406L949.888 775.808C949.093 777.618 948.265 779.414 947.404 781.196L946.503 780.76C945.648 782.528 944.76 784.282 943.838 786.019L944.721 786.488C943.795 788.234 942.836 789.964 941.844 791.678L940.978 791.177C939.995 792.876 938.978 794.559 937.93 796.224L938.776 796.757C937.724 798.428 936.639 800.082 935.523 801.717L934.697 801.153C933.59 802.774 932.452 804.376 931.283 805.959L932.087 806.553C930.913 808.142 929.708 809.711 928.472 811.26L927.691 810.637C926.467 812.171 925.212 813.684 923.927 815.177L924.685 815.83C923.398 817.325 922.08 818.799 920.733 820.251L920 819.571C918.667 821.008 917.304 822.424 915.911 823.817L916.619 824.524C915.223 825.92 913.799 827.293 912.346 828.643L911.665 827.91C910.228 829.245 908.762 830.557 907.268 831.845L907.921 832.602C906.429 833.889 904.908 835.151 903.36 836.389L902.736 835.607C901.206 836.831 899.649 838.029 898.065 839.203L898.66 840.006C897.075 841.18 895.464 842.329 893.825 843.451L893.26 842.626C891.644 843.734 890.001 844.816 888.333 845.872L888.868 846.717C887.205 847.769 885.517 848.795 883.804 849.794L883.3 848.931C882.45 849.427 881.593 849.916 880.73 850.398C879.867 850.881 879.002 851.354 878.134 851.819L878.606 852.701C876.858 853.637 875.1 854.538 873.332 855.404L872.893 854.506C871.12 855.374 869.338 856.207 867.548 857.004L867.955 857.918C866.14 858.725 864.318 859.497 862.488 860.233L862.115 859.305C860.286 860.04 858.45 860.739 856.607 861.402L856.945 862.343C855.08 863.014 853.208 863.648 851.331 864.246L851.028 863.293C849.148 863.892 847.263 864.454 845.373 864.979L845.641 865.943C843.73 866.474 841.815 866.969 839.895 867.426L839.663 866.454C837.747 866.91 835.827 867.33 833.905 867.714L834.1 868.695C832.158 869.082 830.212 869.433 828.264 869.746L828.105 868.759C826.16 869.072 824.214 869.348 822.266 869.588L822.388 870.581C820.421 870.823 818.453 871.027 816.485 871.196L816.4 870.199C814.439 870.367 812.478 870.497 810.518 870.592L810.566 871.59C808.588 871.686 806.611 871.744 804.637 871.765L804.626 870.765C802.658 870.786 800.692 870.771 798.73 870.72L798.704 871.719C796.724 871.667 794.747 871.578 792.775 871.453L792.838 870.455C790.875 870.331 788.916 870.17 786.962 869.973L786.862 870.968C784.893 870.769 782.929 870.534 780.971 870.263L781.108 869.272C779.16 869.003 777.219 868.697 775.285 868.356L775.111 869.34C773.162 868.996 771.22 868.616 769.287 868.201L769.497 867.223C767.575 866.81 765.661 866.361 763.757 865.877L763.51 866.846C761.593 866.359 759.685 865.836 757.788 865.278L758.071 864.318C756.185 863.764 754.31 863.174 752.446 862.549L752.128 863.498C750.253 862.869 748.389 862.206 746.539 861.508L746.891 860.572C745.053 859.879 743.227 859.151 741.415 858.39L741.027 859.311C739.204 858.545 737.396 857.745 735.602 856.91L736.023 856.004C734.242 855.175 732.476 854.313 730.725 853.417L730.27 854.308C728.51 853.407 726.766 852.473 725.038 851.506L725.527 850.633C723.814 849.674 722.118 848.681 720.44 847.656L719.918 848.51C718.232 847.48 716.564 846.417 714.915 845.323L715.468 844.489C713.833 843.404 712.216 842.286 710.619 841.136L710.035 841.948C708.432 840.793 706.848 839.607 705.286 838.389L705.9 837.6C704.353 836.394 702.826 835.156 701.321 833.888L700.676 834.653C699.167 833.381 697.68 832.078 696.215 830.745L696.888 830.006C695.437 828.686 694.01 827.336 692.605 825.956L691.904 826.669C690.496 825.286 689.111 823.872 687.751 822.429L688.478 821.743C687.133 820.317 685.812 818.861 684.515 817.376L683.762 818.034C682.466 816.55 681.194 815.036 679.948 813.495L680.726 812.866C679.495 811.343 678.289 809.792 677.11 808.213L676.308 808.811C675.128 807.231 673.974 805.624 672.846 803.989L673.669 803.421C672.557 801.809 671.472 800.169 670.413 798.504L669.569 799.04C668.514 797.379 667.486 795.692 666.485 793.979L667.349 793.475C666.853 792.625 666.363 791.769 665.881 790.906C665.398 790.043 664.925 789.178 664.461 788.31L663.579 788.782C662.644 787.033 661.745 785.273 660.882 783.504L661.781 783.066C660.916 781.292 660.088 779.509 659.296 777.717L658.382 778.121C657.579 776.305 656.814 774.48 656.086 772.647L657.015 772.278C656.288 770.446 655.598 768.606 654.944 766.76L654.002 767.093C653.341 765.225 652.717 763.349 652.131 761.467L653.086 761.17C652.5 759.288 651.951 757.4 651.44 755.507L650.475 755.768C649.958 753.853 649.479 751.933 649.037 750.009L650.012 749.786C649.572 747.867 649.169 745.943 648.804 744.016L647.822 744.203C647.453 742.257 647.122 740.307 646.829 738.356L647.818 738.207C647.525 736.26 647.271 734.312 647.053 732.362L646.059 732.472C645.84 730.503 645.658 728.533 645.514 726.563L646.512 726.49C646.368 724.527 646.262 722.565 646.193 720.603L645.194 720.638C645.125 718.66 645.093 716.682 645.098 714.707L646.098 714.709C646.104 712.743 646.146 710.778 646.226 708.816L645.227 708.776C645.307 706.798 645.424 704.823 645.579 702.852L646.576 702.93C646.729 700.97 646.92 699.013 647.146 697.062L646.153 696.946C646.381 694.981 646.647 693.021 646.948 691.067L647.936 691.219C648.236 689.277 648.572 687.34 648.944 685.41L647.962 685.221C648.337 683.279 648.748 681.344 649.194 679.417L650.168 679.643C650.612 677.728 651.092 675.822 651.606 673.925L650.641 673.663C651.159 671.755 651.713 669.856 652.301 667.967L653.256 668.264C653.841 666.389 654.46 664.523 655.115 662.669L654.172 662.336C654.83 660.471 655.523 658.618 656.25 656.778L657.18 657.145C657.902 655.319 658.658 653.504 659.448 651.704L658.532 651.302C659.327 649.492 660.155 647.696 661.016 645.914L661.917 646.35C662.772 644.582 663.66 642.829 664.582 641.091L663.699 640.622C664.625 638.876 665.584 637.146 666.576 635.432L667.442 635.933C668.425 634.234 669.442 632.551 670.49 630.886L669.644 630.353C670.696 628.682 671.781 627.028 672.897 625.393L673.723 625.957C674.83 624.336 675.968 622.734 677.137 621.151L676.333 620.557C677.507 618.968 678.712 617.399 679.948 615.85L680.729 616.474C681.953 614.94 683.208 613.426 684.493 611.933L683.735 611.28C685.022 609.785 686.34 608.311 687.687 606.859L688.42 607.539C689.753 606.102 691.116 604.686 692.509 603.293L691.801 602.586C693.197 601.19 694.621 599.817 696.074 598.467L696.755 599.2C698.192 597.865 699.658 596.553 701.152 595.265L700.499 594.508C701.991 593.222 703.512 591.959 705.06 590.722L705.684 591.503C707.214 590.28 708.771 589.081 710.355 587.908L709.76 587.104C711.345 585.93 712.956 584.781 714.595 583.659L715.16 584.484C716.776 583.376 718.419 582.294 720.087 581.238L719.552 580.393C721.215 579.341 722.903 578.315 724.616 577.316L725.12 578.179C725.971 577.684 726.827 577.194 727.69 576.712C728.553 576.229 729.418 575.756 730.286 575.291L729.814 574.409C731.562 573.473 733.32 572.572 735.088 571.706L735.527 572.604C737.3 571.736 739.082 570.903 740.872 570.106L740.465 569.192C742.28 568.385 744.102 567.613 745.932 566.877L746.305 567.805C748.134 567.07 749.97 566.371 751.813 565.708L751.475 564.767C753.34 564.096 755.212 563.462 757.089 562.864L757.392 563.817C759.272 563.218 761.157 562.656 763.047 562.131L762.779 561.167C764.69 560.636 766.605 560.141 768.525 559.684L768.757 560.656C770.673 560.2 772.593 559.78 774.515 559.396L774.32 558.415C776.262 558.028 778.208 557.678 780.156 557.364L780.315 558.351C782.26 558.038 784.206 557.762 786.154 557.522L786.032 556.53C787.999 556.288 789.967 556.083 791.935 555.915L792.02 556.911C793.981 556.743 795.942 556.613 797.902 556.518L797.854 555.52C799.832 555.425 801.809 555.366 803.783 555.345L803.794 556.345C805.762 556.324 807.728 556.339 809.69 556.39L809.716 555.391C811.696 555.443 813.673 555.532 815.645 555.657L815.582 556.655C817.545 556.779 819.504 556.94 821.458 557.138L821.558 556.143C823.528 556.341 825.491 556.576 827.449 556.847L827.312 557.838C829.26 558.107 831.201 558.413 833.135 558.755L833.309 557.77C835.258 558.114 837.2 558.494 839.133 558.909L838.923 559.887C840.845 560.3 842.759 560.749 844.663 561.233L844.91 560.264C846.827 560.752 848.735 561.274 850.632 561.832L850.349 562.792C852.235 563.347 854.11 563.936 855.974 564.561L856.292 563.612C858.167 564.241 860.031 564.904 861.881 565.602L861.529 566.538C863.367 567.231 865.193 567.959 867.005 568.72L867.393 567.799C869.216 568.565 871.024 569.365 872.818 570.2L872.397 571.106C874.178 571.935 875.944 572.797 877.695 573.693L878.15 572.803C879.91 573.703 881.655 574.637 883.382 575.604L882.893 576.477C884.606 577.436 886.302 578.429 887.98 579.454L888.502 578.6C890.188 579.63 891.856 580.693 893.505 581.788L892.952 582.621C894.587 583.706 896.204 584.824 897.801 585.974L898.385 585.162C899.988 586.317 901.572 587.503 903.134 588.721L902.52 589.51C904.067 590.716 905.594 591.954 907.099 593.222L907.744 592.457C909.253 593.729 910.74 595.032 912.205 596.365L911.532 597.104C912.983 598.424 914.41 599.774 915.815 601.154L916.516 600.441C917.924 601.824 919.309 603.238 920.669 604.681L919.942 605.367C921.287 606.793 922.608 608.249 923.905 609.734L924.658 609.076C925.954 610.56 927.226 612.074 928.472 613.615L927.694 614.244C928.925 615.767 930.131 617.318 931.31 618.897L932.112 618.299C933.292 619.879 934.446 621.486 935.574 623.121L934.751 623.689C935.863 625.301 936.948 626.941 938.007 628.606L938.851 628.07Z" stroke="#00C2FF" stroke-width="2" stroke-dasharray="6 6"/>
<path id="bg-hero-line4" opacity="0.2" d="M1398 1419L2350.5 1367.5" stroke="url(#paint2_linear)"/>
<path id="bg-hero-line3" opacity="0.2" d="M1109 1414.76L2061.5 1363.26" stroke="url(#paint3_linear)"/>
<g id="Rectangle-3">
<path d="M2132.24 1177L2206.63 1245.58L2135.39 1322.85L2061 1254.27L2132.24 1177Z" fill="url(#paint4_linear)"/>
<path d="M2132.24 1177L2206.63 1245.58L2135.39 1322.85L2061 1254.27L2132.24 1177Z" fill="url(#paint5_linear)"/>
</g>
<path id="Rectangle-1" opacity="0.99" d="M1217 546.075L1284.83 471L1362.81 541.456L1294.98 616.53L1217 546.075Z" fill="url(#paint6_linear)"/>
<path id="Rectangle-2" d="M970.12 1060L1056.85 1112.1L1002.73 1202.19L916 1150.09L970.12 1060Z" fill="url(#paint7_linear)"/>
</g>
<defs>
<filter id="filter0_f" x="0" y="295" width="2402.91" height="1622.8" filterUnits="userSpaceOnUse" color-interpolation-filters="sRGB">
<feFlood flood-opacity="0" result="BackgroundImageFix"/>
<feBlend mode="normal" in="SourceGraphic" in2="BackgroundImageFix" result="shape"/>
<feGaussianBlur stdDeviation="222" result="effect1_foregroundBlur"/>
</filter>
<filter id="filter1_f" x="213.991" y="0.40271" width="2549.02" height="1684.19" filterUnits="userSpaceOnUse" color-interpolation-filters="sRGB">
<feFlood flood-opacity="0" result="BackgroundImageFix"/>
<feBlend mode="normal" in="SourceGraphic" in2="BackgroundImageFix" result="shape"/>
<feGaussianBlur stdDeviation="222" result="effect1_foregroundBlur"/>
</filter>
<linearGradient id="paint0_linear" x1="2215.96" y1="462.257" x2="1465.89" y2="1913.38" gradientUnits="userSpaceOnUse">
<stop stop-color="#00C2FF"/>
<stop offset="1" stop-color="#00C2FF" stop-opacity="0"/>
</linearGradient>
<linearGradient id="paint1_linear" x1="2215.96" y1="499.257" x2="1465.89" y2="1950.38" gradientUnits="userSpaceOnUse">
<stop stop-color="#00C2FF"/>
<stop offset="1" stop-color="#00C2FF" stop-opacity="0"/>
</linearGradient>
<linearGradient id="paint2_linear" x1="1448.09" y1="579.92" x2="2184.69" y2="295.418" gradientUnits="userSpaceOnUse">
<stop stop-color="#00C2FF"/>
<stop offset="1" stop-color="#00C2FF" stop-opacity="0.2"/>
</linearGradient>
<linearGradient id="paint3_linear" x1="1159.09" y1="575.677" x2="1895.69" y2="291.175" gradientUnits="userSpaceOnUse">
<stop stop-color="#00C2FF"/>
<stop offset="1" stop-color="#00C2FF" stop-opacity="0.2"/>
</linearGradient>
<linearGradient id="paint4_linear" x1="2340.13" y1="1010.32" x2="2404.91" y2="1070.41" gradientUnits="userSpaceOnUse">
<stop stop-color="#00C2FF"/>
<stop offset="1" stop-color="#00C2FF" stop-opacity="0.2"/>
</linearGradient>
<linearGradient id="paint5_linear" x1="2340.13" y1="1010.32" x2="2404.91" y2="1070.41" gradientUnits="userSpaceOnUse">
<stop stop-color="#00C2FF"/>
<stop offset="1" stop-color="#00C2FF" stop-opacity="0.2"/>
</linearGradient>
<linearGradient id="paint6_linear" x1="1048.23" y1="339.873" x2="1107.67" y2="274.493" gradientUnits="userSpaceOnUse">
<stop stop-color="#00C2FF"/>
<stop offset="1" stop-color="#00C2FF" stop-opacity="0.2"/>
</linearGradient>
<linearGradient id="paint7_linear" x1="1139.96" y1="854.683" x2="1215.56" y2="900.414" gradientUnits="userSpaceOnUse">
<stop stop-color="#00C2FF"/>
<stop offset="1" stop-color="#00C2FF" stop-opacity="0.2"/>
</linearGradient>
</defs>
</svg>
